{"accessors" : [{"bufferView" : 0, "byteOffset" : 0, "componentType" : 5123, "count" : 6828, "type" : "SCALAR", "max" : [6827], "min" : [0]}, {"bufferView" : 1, "byteOffset" : 0, "componentType" : 5126, "count" : 6828, "type" : "VEC3", "max" : [34.7581901550293, 1.1158439860992075E-07, 10], "min" : [3.338534116744995, -41.52885818481445, 0], "name" : "POSITION"}, {"bufferView" : 1, "byteOffset" : 12, "componentType" : 5126, "count" : 6828, "type" : "VEC3", "max" : [0.9998608827590942, 0.9999564290046692, 1.0000044107437134], "min" : [-0.9998776912689209, -0.9999490976333618, -1.0000044107437134], "name" : "NORMAL"}], "asset" : {"generator" : "Aspose.3D 23.11.1", "version" : "2.0"}, "buffers" : [{"uri" : "data:application/octet-stream;base64,", "byteLength" : 177536}], "bufferViews" : [{"buffer" : 0, "byteOffset" : 0, "byteLength" : 13656, "target" : 34963}, {"buffer" : 0, "byteOffset" : 13660, "byteLength" : 163872, "byteStride" : 24, "target" : 34962}], "meshes" : [{"primitives" : [{"attributes" : {"POSITION" : 1, "NORMAL" : 2}, "indices" : 0, "mode" : 4}], "name" : "ascii"}], "nodes" : [{"mesh" : 0, "name" : "ascii"}], "scene" : 0, "scenes" : [{"nodes" : [0]}]}