{"accessors" : [{"bufferView" : 0, "byteOffset" : 0, "componentType" : 5123, "count" : 5772, "type" : "SCALAR", "max" : [5771], "min" : [0]}, {"bufferView" : 1, "byteOffset" : 0, "componentType" : 5126, "count" : 5772, "type" : "VEC3", "max" : [34.664588928222656, 1.2943789897690294E-06, 10], "min" : [2.8393139839172363, -41.466461181640625, 0], "name" : "POSITION"}, {"bufferView" : 1, "byteOffset" : 12, "componentType" : 5126, "count" : 5772, "type" : "VEC3", "max" : [0.9999548196792603, 0.9999238848686218, 1.0000044107437134], "min" : [-1.0000044107437134, -0.9999321103096008, -1.0000044107437134], "name" : "NORMAL"}], "asset" : {"generator" : "Aspose.3D 23.11.1", "version" : "2.0"}, "buffers" : [{"uri" : "data:application/octet-stream;base64,", "byteLength" : 150080}], "bufferViews" : [{"buffer" : 0, "byteOffset" : 0, "byteLength" : 11544, "target" : 34963}, {"buffer" : 0, "byteOffset" : 11548, "byteLength" : 138528, "byteStride" : 24, "target" : 34962}], "meshes" : [{"primitives" : [{"attributes" : {"POSITION" : 1, "NORMAL" : 2}, "indices" : 0, "mode" : 4}], "name" : "ascii"}], "nodes" : [{"mesh" : 0, "name" : "ascii"}], "scene" : 0, "scenes" : [{"nodes" : [0]}]}