{"accessors" : [{"bufferView" : 0, "byteOffset" : 0, "componentType" : 5123, "count" : 4920, "type" : "SCALAR", "max" : [4919], "min" : [0]}, {"bufferView" : 1, "byteOffset" : 0, "componentType" : 5126, "count" : 4920, "type" : "VEC3", "max" : [33.82215118408203, 1.1158439860992075E-07, 10], "min" : [3.6817469596862793, -41.52885818481445, 0], "name" : "POSITION"}, {"bufferView" : 1, "byteOffset" : 12, "componentType" : 5126, "count" : 4920, "type" : "VEC3", "max" : [0.9998658895492554, 1.0000044107437134, 1.0000044107437134], "min" : [-1.0000044107437134, -1.0000044107437134, -1.0000044107437134], "name" : "NORMAL"}], "asset" : {"generator" : "Aspose.3D 23.11.1", "version" : "2.0"}, "buffers" : [{"uri" : "data:application/octet-stream;base64,", "byteLength" : 127928}], "bufferViews" : [{"buffer" : 0, "byteOffset" : 0, "byteLength" : 9840, "target" : 34963}, {"buffer" : 0, "byteOffset" : 9844, "byteLength" : 118080, "byteStride" : 24, "target" : 34962}], "meshes" : [{"primitives" : [{"attributes" : {"POSITION" : 1, "NORMAL" : 2}, "indices" : 0, "mode" : 4}], "name" : "ascii"}], "nodes" : [{"mesh" : 0, "name" : "ascii"}], "scene" : 0, "scenes" : [{"nodes" : [0]}]}