{"accessors" : [{"bufferView" : 0, "byteOffset" : 0, "componentType" : 5123, "count" : 4626, "type" : "SCALAR", "max" : [4625], "min" : [0]}, {"bufferView" : 1, "byteOffset" : 0, "componentType" : 5126, "count" : 4626, "type" : "VEC3", "max" : [43.90016174316406, 1.1158439860992075E-07, 10], "min" : [2.7457098960876465, -48.76755142211914, 0], "name" : "POSITION"}, {"bufferView" : 1, "byteOffset" : 12, "componentType" : 5126, "count" : 4626, "type" : "VEC3", "max" : [0.9999496936798096, 0.9999086856842041, 1.0000044107437134], "min" : [-0.9999445080757141, -1.0000044107437134, -1.0000044107437134], "name" : "NORMAL"}], "asset" : {"generator" : "Aspose.3D 23.11.1", "version" : "2.0"}, "buffers" : [{"uri" : "data:application/octet-stream;base64,", "byteLength" : 120284}], "bufferViews" : [{"buffer" : 0, "byteOffset" : 0, "byteLength" : 9252, "target" : 34963}, {"buffer" : 0, "byteOffset" : 9256, "byteLength" : 111024, "byteStride" : 24, "target" : 34962}], "meshes" : [{"primitives" : [{"attributes" : {"POSITION" : 1, "NORMAL" : 2}, "indices" : 0, "mode" : 4}], "name" : "ascii"}], "nodes" : [{"mesh" : 0, "name" : "ascii"}], "scene" : 0, "scenes" : [{"nodes" : [0]}]}