{"accessors" : [{"bufferView" : 0, "byteOffset" : 0, "componentType" : 5123, "count" : 4848, "type" : "SCALAR", "max" : [4847], "min" : [0]}, {"bufferView" : 1, "byteOffset" : 0, "componentType" : 5126, "count" : 4848, "type" : "VEC3", "max" : [43.90016174316406, 1.1158439860992075E-07, 10], "min" : [2.7457098960876465, -41.52885818481445, 0], "name" : "POSITION"}, {"bufferView" : 1, "byteOffset" : 12, "componentType" : 5126, "count" : 4848, "type" : "VEC3", "max" : [0.9999474883079529, 0.9999426007270813, 1.0000044107437134], "min" : [-0.9999477863311768, -0.9999424815177917, -1.0000044107437134], "name" : "NORMAL"}], "asset" : {"generator" : "Aspose.3D 23.11.1", "version" : "2.0"}, "buffers" : [{"uri" : "data:application/octet-stream;base64,", "byteLength" : 126056}], "bufferViews" : [{"buffer" : 0, "byteOffset" : 0, "byteLength" : 9696, "target" : 34963}, {"buffer" : 0, "byteOffset" : 9700, "byteLength" : 116352, "byteStride" : 24, "target" : 34962}], "meshes" : [{"primitives" : [{"attributes" : {"POSITION" : 1, "NORMAL" : 2}, "indices" : 0, "mode" : 4}], "name" : "ascii"}], "nodes" : [{"mesh" : 0, "name" : "ascii"}], "scene" : 0, "scenes" : [{"nodes" : [0]}]}