{"accessors" : [{"bufferView" : 0, "byteOffset" : 0, "componentType" : 5123, "count" : 3540, "type" : "SCALAR", "max" : [3539], "min" : [0]}, {"bufferView" : 1, "byteOffset" : 0, "componentType" : 5126, "count" : 3540, "type" : "VEC3", "max" : [36.78627014160156, 1.1158439860992075E-07, 9], "min" : [2.7457098960876465, -41.52885818481445, 0], "name" : "POSITION"}, {"bufferView" : 1, "byteOffset" : 12, "componentType" : 5126, "count" : 3540, "type" : "VEC3", "max" : [1.0000044107437134, 0.9999133944511414, 1.0000044107437134], "min" : [-0.999934196472168, -0.9999440312385559, -1.0000044107437134], "name" : "NORMAL"}], "asset" : {"generator" : "Aspose.3D 23.11.1", "version" : "2.0"}, "buffers" : [{"uri" : "data:application/octet-stream;base64,", "byteLength" : 92048}], "bufferViews" : [{"buffer" : 0, "byteOffset" : 0, "byteLength" : 7080, "target" : 34963}, {"buffer" : 0, "byteOffset" : 7084, "byteLength" : 84960, "byteStride" : 24, "target" : 34962}], "meshes" : [{"primitives" : [{"attributes" : {"POSITION" : 1, "NORMAL" : 2}, "indices" : 0, "mode" : 4}], "name" : "ascii"}], "nodes" : [{"mesh" : 0, "name" : "ascii"}], "scene" : 0, "scenes" : [{"nodes" : [0]}]}