{"accessors" : [{"bufferView" : 0, "byteOffset" : 0, "componentType" : 5123, "count" : 144, "type" : "SCALAR", "max" : [143], "min" : [0]}, {"bufferView" : 1, "byteOffset" : 0, "componentType" : 5126, "count" : 144, "type" : "VEC3", "max" : [58.81435012817383, 0, 10], "min" : [1.6224650144577026, -40, 0], "name" : "POSITION"}, {"bufferView" : 1, "byteOffset" : 12, "componentType" : 5126, "count" : 144, "type" : "VEC3", "max" : [0.9733616709709167, 1.0000044107437134, 1.0000044107437134], "min" : [-0.9734898805618286, -1.0000044107437134, -1.0000044107437134], "name" : "NORMAL"}], "asset" : {"generator" : "Aspose.3D 23.11.1", "version" : "2.0"}, "buffers" : [{"uri" : "data:application/octet-stream;base64,", "byteLength" : 3752}], "bufferViews" : [{"buffer" : 0, "byteOffset" : 0, "byteLength" : 288, "target" : 34963}, {"buffer" : 0, "byteOffset" : 292, "byteLength" : 3456, "byteStride" : 24, "target" : 34962}], "meshes" : [{"primitives" : [{"attributes" : {"POSITION" : 1, "NORMAL" : 2}, "indices" : 0, "mode" : 4}], "name" : "ascii"}], "nodes" : [{"mesh" : 0, "name" : "ascii"}], "scene" : 0, "scenes" : [{"nodes" : [0]}]}