{"accessors" : [{"bufferView" : 0, "byteOffset" : 0, "componentType" : 5123, "count" : 132, "type" : "SCALAR", "max" : [131], "min" : [0]}, {"bufferView" : 1, "byteOffset" : 0, "componentType" : 5126, "count" : 132, "type" : "VEC3", "max" : [41.21685028076172, 0, 10], "min" : [1.0608420372009277, -40, 0], "name" : "POSITION"}, {"bufferView" : 1, "byteOffset" : 12, "componentType" : 5126, "count" : 132, "type" : "VEC3", "max" : [0.8276675343513489, 1.0000044107437134, 1.0000044107437134], "min" : [-0.8277121186256409, -1.0000044107437134, -1.0000044107437134], "name" : "NORMAL"}], "asset" : {"generator" : "Aspose.3D 23.11.1", "version" : "2.0"}, "buffers" : [{"uri" : "data:application/octet-stream;base64,", "byteLength" : 3440}], "bufferViews" : [{"buffer" : 0, "byteOffset" : 0, "byteLength" : 264, "target" : 34963}, {"buffer" : 0, "byteOffset" : 268, "byteLength" : 3168, "byteStride" : 24, "target" : 34962}], "meshes" : [{"primitives" : [{"attributes" : {"POSITION" : 1, "NORMAL" : 2}, "indices" : 0, "mode" : 4}], "name" : "ascii"}], "nodes" : [{"mesh" : 0, "name" : "ascii"}], "scene" : 0, "scenes" : [{"nodes" : [0]}]}